<svg id="visual" viewBox="0 0 720 960" width="720" height="960" xmlns="http://www.w3.org/2000/svg" xmlns:xlink="http://www.w3.org/1999/xlink" version="1.1"><rect x="0" y="0" width="720" height="960" fill="#512da8"></rect><path d="M0 663L30 654.8C60 646.7 120 630.3 180 650.5C240 670.7 300 727.3 360 758.5C420 789.7 480 795.3 540 791.7C600 788 660 775 690 768.5L720 762L720 961L690 961C660 961 600 961 540 961C480 961 420 961 360 961C300 961 240 961 180 961C120 961 60 961 30 961L0 961Z" fill="#fff" stroke-linecap="round" stroke-linejoin="miter"></path></svg>